<?xml version="1.0" encoding="UTF-8" standalone="no"?><!DOCTYPE svg PUBLIC "-//W3C//DTD SVG 1.1//EN" "http://www.w3.org/Graphics/SVG/1.1/DTD/svg11.dtd"><svg width="100%" height="100%" viewBox="0 0 3750 380" version="1.1" xmlns="http://www.w3.org/2000/svg" xmlns:xlink="http://www.w3.org/1999/xlink" xml:space="preserve" xmlns:serif="http://www.serif.com/" style="fill-rule:evenodd;clip-rule:evenodd;stroke-linejoin:round;stroke-miterlimit:2;"><path d="M229.631,295.406c4.257,4.865 6.385,10.034 6.385,15.507c0,4.865 -1.824,9.426 -5.473,13.683c-11.25,12.467 -24.781,22.197 -40.592,29.19c-15.812,6.994 -32.231,10.491 -49.259,10.491c-19.764,-0 -37.476,-3.573 -53.135,-10.719c-15.659,-7.145 -28.886,-16.647 -39.681,-28.506c-10.794,-11.858 -19.004,-25.085 -24.629,-39.68c-5.625,-14.595 -8.438,-29.342 -8.438,-44.242c0,-23.413 5.246,-44.393 15.736,-62.941c10.49,-18.548 24.781,-33.295 42.873,-44.241c18.092,-10.947 38.54,-16.42 61.345,-16.42c35.879,0 64.462,12.467 85.746,37.4c10.946,12.771 16.42,25.085 16.42,36.944c-0,5.473 -1.369,10.794 -4.105,15.963c-5.474,9.73 -13.835,14.595 -25.086,14.595c-8.209,0 -15.051,-2.964 -20.524,-8.893c-5.473,-5.93 -8.21,-12.847 -8.21,-20.753c0,-4.865 1.521,-9.882 4.561,-15.051c1.216,-2.128 1.064,-3.953 -0.456,-5.473c-10.034,-11.859 -26.149,-17.788 -48.346,-17.788c-15.507,0 -29.342,3.725 -41.505,11.174c-12.163,7.45 -21.665,17.636 -28.506,30.559c-6.841,12.923 -10.262,27.898 -10.262,44.925c-0,15.812 3.725,30.179 11.174,43.102c7.45,12.922 17.56,23.108 30.331,30.558c12.77,7.45 27.213,11.174 43.329,11.174c24.021,0 45.61,-10.034 64.766,-30.102c3.648,-4.257 8.057,-6.385 13.226,-6.385c4.865,-0 8.97,1.976 12.315,5.929Z" style="fill:#2b2d42;fill-rule:nonzero;stroke:#2b2d42;stroke-width:18.99px;"/><path d="M485.957,324.596c0.913,-0.304 2.281,-0.456 4.105,-0.456c5.169,0 9.578,1.9 13.227,5.701c3.649,3.801 5.473,8.59 5.473,14.367c0,6.386 -2.28,11.631 -6.841,15.736c-4.561,4.105 -9.882,5.549 -15.964,4.333c-4.561,-1.217 -9.046,-2.053 -13.454,-2.509c-4.409,-0.456 -8.59,-0.836 -12.543,-1.14c-6.081,-0 -11.555,-1.673 -16.42,-5.017c-4.865,-3.345 -8.513,-7.602 -10.946,-12.771c-1.52,-2.737 -3.345,-3.193 -5.473,-1.368c-10.338,7.601 -21.437,13.303 -33.295,17.103c-11.859,3.801 -25.846,5.702 -41.961,5.702c-21.285,-0 -38.768,-6.158 -52.451,-18.472c-13.683,-12.315 -20.525,-28.202 -20.525,-47.662c0,-14.9 3.649,-28.05 10.947,-39.453c7.297,-11.402 17.407,-20.372 30.33,-26.91c12.923,-6.537 28.05,-9.806 45.382,-9.806c9.122,0 18.624,0.913 28.506,2.737c9.882,1.824 20.144,4.865 30.786,9.122c0.304,-0 0.609,0.076 0.913,0.228c0.304,0.152 0.608,0.228 0.912,0.228c2.128,0 3.192,-1.216 3.192,-3.649l0,-14.139c0,-20.676 -5.245,-36.107 -15.735,-46.294c-10.49,-10.186 -23.033,-15.279 -37.628,-15.279c-4.561,0 -9.198,0.532 -13.911,1.597c-4.713,1.064 -9.502,2.508 -14.367,4.332c-2.432,0.913 -3.193,2.585 -2.28,5.017c0.304,1.217 0.532,2.281 0.684,3.193c0.152,0.912 0.228,1.977 0.228,3.193c-0,7.601 -2.737,14.367 -8.21,20.296c-5.473,5.929 -12.467,8.894 -20.98,8.894c-8.818,0 -15.888,-3.117 -21.209,-9.35c-5.321,-6.233 -7.982,-13.303 -7.982,-21.208c0,-3.953 0.761,-7.906 2.281,-11.859c1.52,-3.953 3.801,-7.602 6.841,-10.946c8.514,-9.73 19.08,-17.256 31.699,-22.577c12.619,-5.321 26.074,-7.982 40.365,-7.982c31.622,0 56.1,8.59 73.431,25.77c17.332,17.179 25.998,41.581 25.998,73.203l-0,106.271c-0,2.736 1.064,4.105 3.192,4.105c2.433,-0 4.789,-0.304 7.07,-0.913c2.28,-0.608 4.485,-1.064 6.613,-1.368Zm-134.092,1.368c16.723,-0.608 30.786,-3.344 42.189,-8.209c11.402,-4.865 22.729,-12.923 33.979,-24.173c1.216,-1.521 1.824,-3.193 1.824,-5.017l0,-10.035c0,-2.128 -0.912,-3.648 -2.736,-4.561c-6.385,-3.344 -14.215,-6.689 -23.489,-10.034c-9.274,-3.344 -21.665,-5.017 -37.172,-5.017c-15.507,0 -27.67,3.421 -36.488,10.262c-8.818,6.842 -13.227,16.496 -13.227,28.963c0,8.209 3.269,14.899 9.807,20.068c6.537,5.169 14.975,7.753 25.313,7.753Z" style="fill:#2b2d42;fill-rule:nonzero;stroke:#2b2d42;stroke-width:18.99px;"/><path d="M759.615,146.718c0,7.602 -2.736,14.215 -8.209,19.841c-5.473,5.625 -12.315,8.437 -20.525,8.437c-5.473,0 -10.414,-1.444 -14.823,-4.332c-4.409,-2.889 -7.982,-6.462 -10.718,-10.719c-0.912,-2.128 -2.585,-3.04 -5.017,-2.736c-14.291,2.128 -27.974,10.566 -41.049,25.313c-13.075,14.747 -23.109,33.219 -30.102,55.416c-0.608,1.216 -0.912,2.888 -0.912,5.017l-0,82.097c-0,2.433 1.064,3.649 3.192,3.649c3.345,0 6.462,-0.228 9.35,-0.684c2.889,-0.456 5.853,-0.684 8.894,-0.684c5.169,-0 9.578,1.748 13.227,5.245c3.649,3.497 5.473,7.982 5.473,13.455c0,5.473 -2.052,10.034 -6.157,13.683c-4.105,3.648 -8.894,5.321 -14.367,5.017c-9.426,-0.913 -16.952,-1.597 -22.577,-2.053c-5.625,-0.456 -11.174,-0.684 -16.648,-0.684c-6.385,0 -12.314,0.228 -17.787,0.684c-5.474,0.456 -12.619,1.14 -21.437,2.053c-5.473,0.304 -10.262,-1.369 -14.367,-5.017c-4.105,-3.649 -6.157,-8.21 -6.157,-13.683c-0,-5.473 1.824,-9.958 5.473,-13.455c3.649,-3.497 8.058,-5.245 13.227,-5.245c2.432,-0 5.093,0.152 7.981,0.456c2.889,0.304 5.854,0.608 8.894,0.912l0.912,0c2.129,0 3.193,-1.216 3.193,-3.649l0,-164.195c0,-2.432 -1.064,-3.648 -3.193,-3.648c-5.473,-0 -10.794,0.456 -15.963,1.368c-6.081,0.304 -11.326,-1.52 -15.735,-5.473c-4.409,-3.953 -6.614,-8.97 -6.614,-15.051c0,-6.082 2.281,-11.099 6.842,-15.052c4.561,-3.952 9.73,-5.625 15.507,-5.017c6.081,0.608 10.87,1.065 14.367,1.369c3.497,0.304 6.994,0.456 10.49,0.456l14.367,-0c5.474,-0 10.111,1.976 13.911,5.929c3.801,3.953 5.702,8.514 5.702,13.683l-0,18.7c-0,1.824 0.532,2.888 1.596,3.193c1.064,0.304 2.204,-0.305 3.421,-1.825c20.068,-25.845 44.697,-40.592 73.887,-44.241c2.129,-0.304 4.181,-0.532 6.158,-0.684c1.976,-0.152 4.028,-0.228 6.157,-0.228c11.554,-0 21.132,2.736 28.734,8.209c7.602,5.473 11.402,13.531 11.402,24.173Z" style="fill:#2b2d42;fill-rule:nonzero;stroke:#2b2d42;stroke-width:18.99px;"/><path d="M1032.36,324.14c5.169,0 9.654,1.9 13.455,5.701c3.801,3.801 5.701,8.59 5.701,14.367c0,6.082 -2.204,11.175 -6.613,15.28c-4.409,4.104 -9.654,5.549 -15.735,4.332c-11.859,-2.128 -20.829,-3.192 -26.91,-3.192c-6.081,-0 -11.631,-1.749 -16.648,-5.245c-5.017,-3.497 -8.742,-7.982 -11.174,-13.455c-0.912,-2.737 -2.585,-3.193 -5.017,-1.368c-8.818,7.601 -18.472,13.454 -28.962,17.559c-10.49,4.105 -21.513,6.158 -33.067,6.158c-18.852,-0 -35.576,-3.649 -50.171,-10.947c-14.595,-7.297 -26.91,-16.875 -36.944,-28.734c-10.034,-11.858 -17.635,-25.085 -22.805,-39.68c-5.169,-14.595 -7.753,-29.19 -7.753,-43.786c-0,-14.291 2.28,-28.658 6.841,-43.101c4.561,-14.443 11.479,-27.746 20.753,-39.908c9.274,-12.163 21.056,-21.893 35.347,-29.19c14.291,-7.298 31.015,-10.947 50.171,-10.947c12.466,0 24.173,2.585 35.119,7.754c10.947,5.169 20.677,11.858 29.19,20.068c0.913,0.912 1.825,1.369 2.737,1.369c1.52,-0 2.28,-1.217 2.28,-3.649l0,-88.939c0,-2.433 -1.064,-3.649 -3.192,-3.649c-3.041,0 -6.005,0.228 -8.894,0.684c-2.889,0.456 -6.005,0.684 -9.35,0.684c-4.865,0 -9.122,-1.748 -12.771,-5.245c-3.649,-3.496 -5.473,-7.829 -5.473,-12.998c0,-5.778 1.976,-10.491 5.929,-14.139c3.953,-3.649 8.818,-5.17 14.595,-4.561c4.257,0.304 8.894,0.684 13.911,1.14c5.017,0.456 9.958,0.836 14.824,1.14c8.209,0.304 15.279,3.345 21.208,9.122c5.929,5.777 8.894,12.771 8.894,20.98l-0,275.483c-0,2.432 1.216,3.649 3.649,3.649c3.04,-0 5.853,-0.456 8.437,-1.369c2.585,-0.912 5.398,-1.368 8.438,-1.368Zm-125.426,1.368c27.061,0 48.194,-9.882 63.397,-29.646c1.216,-1.52 1.824,-3.193 1.824,-5.017l0,-99.429c0,-1.824 -0.608,-3.497 -1.824,-5.017c-8.21,-9.122 -17.94,-16.42 -29.19,-21.893c-11.25,-5.473 -22.805,-8.21 -34.663,-8.21c-14.596,0 -27.594,3.573 -38.997,10.719c-11.402,7.145 -20.372,17.103 -26.909,29.874c-6.538,12.771 -9.807,27.366 -9.807,43.785c0,16.116 3.345,30.559 10.035,43.33c6.689,12.77 15.811,22.88 27.365,30.33c11.555,7.45 24.478,11.174 38.769,11.174Z" style="fill:#2b2d42;fill-rule:nonzero;stroke:#2b2d42;stroke-width:18.99px;"/><path d="M1223.01,117.984c19.156,0 35.879,3.649 50.17,10.947c14.291,7.297 26.074,17.027 35.348,29.19c9.274,12.162 16.191,25.465 20.752,39.908c4.561,14.443 6.842,28.81 6.842,43.101c-0,14.596 -2.585,29.191 -7.754,43.786c-5.169,14.595 -12.771,27.822 -22.805,39.68c-10.034,11.859 -22.349,21.437 -36.944,28.734c-14.595,7.298 -31.318,10.947 -50.17,10.947c-11.251,-0 -21.969,-1.977 -32.155,-5.93c-10.186,-3.953 -19.688,-9.426 -28.506,-16.419c-3.345,-2.737 -5.017,-3.193 -5.017,-1.368c-0,5.473 -1.977,10.186 -5.929,14.139c-3.953,3.952 -8.666,5.929 -14.139,5.929c-5.474,-0 -10.111,-1.977 -13.911,-5.929c-3.801,-3.953 -5.702,-8.666 -5.702,-14.139l0,-285.973c0,-2.433 -1.064,-3.649 -3.192,-3.649c-3.041,0 -6.082,0.228 -9.122,0.684c-3.041,0.456 -6.082,0.684 -9.122,0.684c-4.865,0 -9.122,-1.748 -12.771,-5.245c-3.649,-3.496 -5.473,-7.829 -5.473,-12.998c-0,-5.778 1.976,-10.491 5.929,-14.139c3.953,-3.649 8.666,-5.17 14.139,-4.561c4.561,0.304 9.35,0.684 14.367,1.14c5.017,0.456 9.958,0.836 14.823,1.14c8.21,0.304 15.28,3.345 21.209,9.122c5.929,5.777 8.894,12.771 8.894,20.98l-0,96.237c-0,1.824 0.456,3.04 1.368,3.649c0.912,0.608 1.977,0.304 3.193,-0.913c8.818,-8.513 18.7,-15.431 29.646,-20.752c10.946,-5.321 22.957,-7.982 36.032,-7.982Zm-4.105,207.524c14.291,0 27.214,-3.724 38.768,-11.174c11.555,-7.45 20.676,-17.56 27.366,-30.33c6.689,-12.771 10.034,-27.214 10.034,-43.33c-0,-16.419 -3.269,-31.014 -9.806,-43.785c-6.537,-12.771 -15.431,-22.729 -26.682,-29.874c-11.25,-7.146 -24.325,-10.719 -39.224,-10.719c-12.163,0 -23.945,2.737 -35.348,8.21c-11.402,5.473 -21.208,13.075 -29.418,22.805c-1.216,1.52 -1.824,3.193 -1.824,5.017l-0,97.605c-0,1.52 0.456,3.192 1.368,5.017c14.595,20.372 36.184,30.558 64.766,30.558Z" style="fill:#2b2d42;fill-rule:nonzero;stroke:#2b2d42;stroke-width:18.99px;"/><path d="M1486.63,364.733c-17.332,-0 -33.6,-3.193 -48.803,-9.578c-15.203,-6.386 -28.582,-15.204 -40.136,-26.454c-11.555,-11.25 -20.601,-24.401 -27.138,-39.452c-6.537,-15.052 -9.806,-31.091 -9.806,-48.119c-0,-17.027 3.269,-33.067 9.806,-48.118c6.537,-15.051 15.583,-28.202 27.138,-39.452c11.554,-11.251 24.933,-20.068 40.136,-26.454c15.203,-6.385 31.471,-9.578 48.803,-9.578c17.331,0 33.523,3.193 48.574,9.578c15.051,6.386 28.354,15.28 39.908,26.682c11.555,11.402 20.601,24.553 27.138,39.452c6.538,14.899 9.806,30.863 9.806,47.89c0,17.028 -3.268,32.991 -9.806,47.891c-6.537,14.899 -15.583,28.05 -27.138,39.452c-11.554,11.402 -24.857,20.296 -39.908,26.682c-15.051,6.385 -31.243,9.578 -48.574,9.578Zm-0,-37.856c16.115,-0 30.71,-3.801 43.785,-11.403c13.075,-7.601 23.413,-17.94 31.014,-31.014c7.602,-13.075 11.403,-27.518 11.403,-43.33c-0,-15.811 -3.877,-30.178 -11.631,-43.101c-7.753,-12.922 -18.091,-23.261 -31.014,-31.014c-12.923,-7.754 -27.442,-11.631 -43.557,-11.631c-16.42,0 -31.167,3.801 -44.242,11.403c-13.075,7.601 -23.413,17.863 -31.014,30.786c-7.602,12.923 -11.403,27.442 -11.403,43.557c0,15.812 3.801,30.255 11.403,43.33c7.601,13.074 18.015,23.413 31.242,31.014c13.227,7.602 27.898,11.403 44.014,11.403Z" style="fill:#2b2d42;fill-rule:nonzero;stroke:#2b2d42;stroke-width:18.99px;"/><path d="M1857.9,324.596c0.913,-0.304 2.281,-0.456 4.105,-0.456c5.169,0 9.578,1.9 13.227,5.701c3.649,3.801 5.473,8.59 5.473,14.367c0,6.386 -2.28,11.631 -6.841,15.736c-4.561,4.105 -9.882,5.549 -15.964,4.333c-4.561,-1.217 -9.046,-2.053 -13.454,-2.509c-4.409,-0.456 -8.59,-0.836 -12.543,-1.14c-6.081,-0 -11.555,-1.673 -16.42,-5.017c-4.865,-3.345 -8.513,-7.602 -10.946,-12.771c-1.52,-2.737 -3.345,-3.193 -5.473,-1.368c-10.338,7.601 -21.437,13.303 -33.295,17.103c-11.859,3.801 -25.846,5.702 -41.961,5.702c-21.285,-0 -38.768,-6.158 -52.451,-18.472c-13.683,-12.315 -20.525,-28.202 -20.525,-47.662c0,-14.9 3.649,-28.05 10.947,-39.453c7.297,-11.402 17.407,-20.372 30.33,-26.91c12.923,-6.537 28.05,-9.806 45.382,-9.806c9.122,0 18.624,0.913 28.506,2.737c9.882,1.824 20.144,4.865 30.786,9.122c0.304,-0 0.609,0.076 0.913,0.228c0.304,0.152 0.608,0.228 0.912,0.228c2.128,0 3.192,-1.216 3.192,-3.649l0,-14.139c0,-20.676 -5.245,-36.107 -15.735,-46.294c-10.49,-10.186 -23.033,-15.279 -37.628,-15.279c-4.561,0 -9.198,0.532 -13.911,1.597c-4.713,1.064 -9.502,2.508 -14.367,4.332c-2.432,0.913 -3.193,2.585 -2.28,5.017c0.304,1.217 0.532,2.281 0.684,3.193c0.152,0.912 0.228,1.977 0.228,3.193c-0,7.601 -2.737,14.367 -8.21,20.296c-5.473,5.929 -12.467,8.894 -20.98,8.894c-8.818,0 -15.888,-3.117 -21.209,-9.35c-5.321,-6.233 -7.982,-13.303 -7.982,-21.208c0,-3.953 0.761,-7.906 2.281,-11.859c1.52,-3.953 3.801,-7.602 6.841,-10.946c8.514,-9.73 19.08,-17.256 31.699,-22.577c12.619,-5.321 26.074,-7.982 40.365,-7.982c31.622,0 56.1,8.59 73.431,25.77c17.332,17.179 25.998,41.581 25.998,73.203l-0,106.271c-0,2.736 1.064,4.105 3.192,4.105c2.433,-0 4.789,-0.304 7.07,-0.913c2.28,-0.608 4.485,-1.064 6.613,-1.368Zm-134.092,1.368c16.723,-0.608 30.786,-3.344 42.189,-8.209c11.402,-4.865 22.729,-12.923 33.979,-24.173c1.216,-1.521 1.824,-3.193 1.824,-5.017l0,-10.035c0,-2.128 -0.912,-3.648 -2.736,-4.561c-6.385,-3.344 -14.215,-6.689 -23.489,-10.034c-9.274,-3.344 -21.665,-5.017 -37.172,-5.017c-15.507,0 -27.67,3.421 -36.488,10.262c-8.818,6.842 -13.227,16.496 -13.227,28.963c0,8.209 3.269,14.899 9.807,20.068c6.537,5.169 14.975,7.753 25.313,7.753Z" style="fill:#2b2d42;fill-rule:nonzero;stroke:#2b2d42;stroke-width:18.99px;"/><path d="M2131.55,146.718c0,7.602 -2.736,14.215 -8.209,19.841c-5.473,5.625 -12.315,8.437 -20.525,8.437c-5.473,0 -10.414,-1.444 -14.823,-4.332c-4.409,-2.889 -7.982,-6.462 -10.718,-10.719c-0.912,-2.128 -2.585,-3.04 -5.017,-2.736c-14.291,2.128 -27.974,10.566 -41.049,25.313c-13.075,14.747 -23.109,33.219 -30.102,55.416c-0.608,1.216 -0.912,2.888 -0.912,5.017l-0,82.097c-0,2.433 1.064,3.649 3.192,3.649c3.345,0 6.462,-0.228 9.35,-0.684c2.889,-0.456 5.853,-0.684 8.894,-0.684c5.169,-0 9.578,1.748 13.227,5.245c3.649,3.497 5.473,7.982 5.473,13.455c0,5.473 -2.052,10.034 -6.157,13.683c-4.105,3.648 -8.894,5.321 -14.367,5.017c-9.426,-0.913 -16.952,-1.597 -22.577,-2.053c-5.625,-0.456 -11.174,-0.684 -16.648,-0.684c-6.385,0 -12.314,0.228 -17.787,0.684c-5.474,0.456 -12.619,1.14 -21.437,2.053c-5.473,0.304 -10.262,-1.369 -14.367,-5.017c-4.105,-3.649 -6.157,-8.21 -6.157,-13.683c-0,-5.473 1.824,-9.958 5.473,-13.455c3.649,-3.497 8.058,-5.245 13.227,-5.245c2.432,-0 5.093,0.152 7.981,0.456c2.889,0.304 5.854,0.608 8.894,0.912l0.912,0c2.129,0 3.193,-1.216 3.193,-3.649l0,-164.195c0,-2.432 -1.064,-3.648 -3.193,-3.648c-5.473,-0 -10.794,0.456 -15.963,1.368c-6.081,0.304 -11.326,-1.52 -15.735,-5.473c-4.409,-3.953 -6.614,-8.97 -6.614,-15.051c0,-6.082 2.281,-11.099 6.842,-15.052c4.561,-3.952 9.73,-5.625 15.507,-5.017c6.081,0.608 10.87,1.065 14.367,1.369c3.497,0.304 6.994,0.456 10.49,0.456l14.367,-0c5.474,-0 10.111,1.976 13.911,5.929c3.801,3.953 5.702,8.514 5.702,13.683l-0,18.7c-0,1.824 0.532,2.888 1.596,3.193c1.064,0.304 2.204,-0.305 3.421,-1.825c20.068,-25.845 44.697,-40.592 73.887,-44.241c2.129,-0.304 4.181,-0.532 6.158,-0.684c1.976,-0.152 4.028,-0.228 6.157,-0.228c11.554,-0 21.132,2.736 28.734,8.209c7.602,5.473 11.402,13.531 11.402,24.173Z" style="fill:#2b2d42;fill-rule:nonzero;stroke:#2b2d42;stroke-width:18.99px;"/><path d="M2404.3,324.14c5.169,0 9.654,1.9 13.455,5.701c3.801,3.801 5.701,8.59 5.701,14.367c0,6.082 -2.204,11.175 -6.613,15.28c-4.409,4.104 -9.654,5.549 -15.735,4.332c-11.859,-2.128 -20.829,-3.192 -26.91,-3.192c-6.081,-0 -11.631,-1.749 -16.648,-5.245c-5.017,-3.497 -8.741,-7.982 -11.174,-13.455c-0.912,-2.737 -2.585,-3.193 -5.017,-1.368c-8.818,7.601 -18.472,13.454 -28.962,17.559c-10.49,4.105 -21.513,6.158 -33.067,6.158c-18.852,-0 -35.576,-3.649 -50.171,-10.947c-14.595,-7.297 -26.91,-16.875 -36.944,-28.734c-10.034,-11.858 -17.635,-25.085 -22.805,-39.68c-5.169,-14.595 -7.753,-29.19 -7.753,-43.786c-0,-14.291 2.28,-28.658 6.841,-43.101c4.561,-14.443 11.479,-27.746 20.753,-39.908c9.274,-12.163 21.056,-21.893 35.347,-29.19c14.291,-7.298 31.015,-10.947 50.171,-10.947c12.466,0 24.173,2.585 35.119,7.754c10.947,5.169 20.677,11.858 29.19,20.068c0.913,0.912 1.825,1.369 2.737,1.369c1.52,-0 2.281,-1.217 2.281,-3.649l-0,-88.939c-0,-2.433 -1.065,-3.649 -3.193,-3.649c-3.041,0 -6.005,0.228 -8.894,0.684c-2.889,0.456 -6.005,0.684 -9.35,0.684c-4.865,0 -9.122,-1.748 -12.771,-5.245c-3.649,-3.496 -5.473,-7.829 -5.473,-12.998c0,-5.778 1.977,-10.491 5.929,-14.139c3.953,-3.649 8.818,-5.17 14.595,-4.561c4.257,0.304 8.894,0.684 13.911,1.14c5.017,0.456 9.959,0.836 14.824,1.14c8.209,0.304 15.279,3.345 21.208,9.122c5.929,5.777 8.894,12.771 8.894,20.98l-0,275.483c-0,2.432 1.216,3.649 3.649,3.649c3.04,-0 5.853,-0.456 8.437,-1.369c2.585,-0.912 5.398,-1.368 8.438,-1.368Zm-125.426,1.368c27.061,0 48.194,-9.882 63.397,-29.646c1.216,-1.52 1.825,-3.193 1.825,-5.017l-0,-99.429c-0,-1.824 -0.609,-3.497 -1.825,-5.017c-8.21,-9.122 -17.94,-16.42 -29.19,-21.893c-11.25,-5.473 -22.805,-8.21 -34.663,-8.21c-14.596,0 -27.594,3.573 -38.997,10.719c-11.402,7.145 -20.372,17.103 -26.909,29.874c-6.538,12.771 -9.806,27.366 -9.806,43.785c-0,16.116 3.344,30.559 10.034,43.33c6.689,12.77 15.811,22.88 27.365,30.33c11.555,7.45 24.478,11.174 38.769,11.174Z" style="fill:#2b2d42;fill-rule:nonzero;stroke:#2b2d42;stroke-width:18.99px;"/><path d="M2594.95,117.984c19.156,0 35.879,3.649 50.17,10.947c14.291,7.297 26.074,17.027 35.348,29.19c9.274,12.162 16.191,25.465 20.752,39.908c4.561,14.443 6.842,28.81 6.842,43.101c-0,14.596 -2.585,29.191 -7.754,43.786c-5.169,14.595 -12.771,27.822 -22.805,39.68c-10.034,11.859 -22.349,21.437 -36.944,28.734c-14.595,7.298 -31.318,10.947 -50.17,10.947c-11.251,-0 -21.969,-1.977 -32.155,-5.93c-10.186,-3.953 -19.688,-9.426 -28.506,-16.419c-3.345,-2.737 -5.017,-3.193 -5.017,-1.368c-0,5.473 -1.977,10.186 -5.929,14.139c-3.953,3.952 -8.666,5.929 -14.139,5.929c-5.474,-0 -10.111,-1.977 -13.911,-5.929c-3.801,-3.953 -5.702,-8.666 -5.702,-14.139l0,-285.973c0,-2.433 -1.064,-3.649 -3.192,-3.649c-3.041,0 -6.082,0.228 -9.122,0.684c-3.041,0.456 -6.081,0.684 -9.122,0.684c-4.865,0 -9.122,-1.748 -12.771,-5.245c-3.649,-3.496 -5.473,-7.829 -5.473,-12.998c-0,-5.778 1.976,-10.491 5.929,-14.139c3.953,-3.649 8.666,-5.17 14.139,-4.561c4.561,0.304 9.35,0.684 14.367,1.14c5.017,0.456 9.958,0.836 14.823,1.14c8.21,0.304 15.28,3.345 21.209,9.122c5.929,5.777 8.894,12.771 8.894,20.98l-0,96.237c-0,1.824 0.456,3.04 1.368,3.649c0.912,0.608 1.977,0.304 3.193,-0.913c8.818,-8.513 18.7,-15.431 29.646,-20.752c10.946,-5.321 22.957,-7.982 36.032,-7.982Zm-4.105,207.524c14.291,0 27.214,-3.724 38.768,-11.174c11.555,-7.45 20.676,-17.56 27.366,-30.33c6.689,-12.771 10.034,-27.214 10.034,-43.33c0,-16.419 -3.269,-31.014 -9.806,-43.785c-6.537,-12.771 -15.431,-22.729 -26.682,-29.874c-11.25,-7.146 -24.325,-10.719 -39.224,-10.719c-12.163,0 -23.945,2.737 -35.348,8.21c-11.402,5.473 -21.208,13.075 -29.418,22.805c-1.216,1.52 -1.824,3.193 -1.824,5.017l-0,97.605c-0,1.52 0.456,3.192 1.368,5.017c14.595,20.372 36.184,30.558 64.766,30.558Z" style="fill:#ff6200;fill-rule:nonzero;stroke:#ff6200;stroke-width:18.99px;"/><path d="M2858.57,364.733c-17.332,-0 -33.599,-3.193 -48.803,-9.578c-15.203,-6.386 -28.582,-15.204 -40.136,-26.454c-11.555,-11.25 -20.601,-24.401 -27.138,-39.452c-6.537,-15.052 -9.806,-31.091 -9.806,-48.119c-0,-17.027 3.269,-33.067 9.806,-48.118c6.537,-15.051 15.583,-28.202 27.138,-39.452c11.554,-11.251 24.933,-20.068 40.136,-26.454c15.204,-6.385 31.471,-9.578 48.803,-9.578c17.331,0 33.523,3.193 48.574,9.578c15.051,6.386 28.354,15.28 39.908,26.682c11.555,11.402 20.601,24.553 27.138,39.452c6.538,14.899 9.806,30.863 9.806,47.89c0,17.028 -3.268,32.991 -9.806,47.891c-6.537,14.899 -15.583,28.05 -27.138,39.452c-11.554,11.402 -24.857,20.296 -39.908,26.682c-15.051,6.385 -31.243,9.578 -48.574,9.578Zm-0,-37.856c16.115,-0 30.71,-3.801 43.785,-11.403c13.075,-7.601 23.413,-17.94 31.015,-31.014c7.601,-13.075 11.402,-27.518 11.402,-43.33c-0,-15.811 -3.877,-30.178 -11.631,-43.101c-7.753,-12.922 -18.091,-23.261 -31.014,-31.014c-12.923,-7.754 -27.442,-11.631 -43.557,-11.631c-16.42,0 -31.167,3.801 -44.242,11.403c-13.075,7.601 -23.413,17.863 -31.014,30.786c-7.602,12.923 -11.403,27.442 -11.403,43.557c0,15.812 3.801,30.255 11.403,43.33c7.601,13.074 18.015,23.413 31.242,31.014c13.227,7.602 27.898,11.403 44.014,11.403Z" style="fill:#ff6200;fill-rule:nonzero;stroke:#ff6200;stroke-width:18.99px;"/><path d="M3214.78,146.718c0,7.602 -2.736,14.215 -8.21,19.841c-5.473,5.625 -12.314,8.437 -20.524,8.437c-5.473,0 -10.414,-1.444 -14.823,-4.332c-4.409,-2.889 -7.982,-6.462 -10.718,-10.719c-0.913,-2.128 -2.585,-3.04 -5.017,-2.736c-14.291,2.128 -27.974,10.566 -41.049,25.313c-13.075,14.747 -23.109,33.219 -30.102,55.416c-0.609,1.216 -0.913,2.888 -0.913,5.017l0,82.097c0,2.433 1.065,3.649 3.193,3.649c3.345,0 6.461,-0.228 9.35,-0.684c2.889,-0.456 5.853,-0.684 8.894,-0.684c5.169,-0 9.578,1.748 13.227,5.245c3.648,3.497 5.473,7.982 5.473,13.455c-0,5.473 -2.053,10.034 -6.157,13.683c-4.105,3.648 -8.894,5.321 -14.368,5.017c-9.426,-0.913 -16.951,-1.597 -22.576,-2.053c-5.625,-0.456 -11.175,-0.684 -16.648,-0.684c-6.385,0 -12.314,0.228 -17.788,0.684c-5.473,0.456 -12.618,1.14 -21.436,2.053c-5.473,0.304 -10.262,-1.369 -14.367,-5.017c-4.105,-3.649 -6.158,-8.21 -6.158,-13.683c0,-5.473 1.825,-9.958 5.474,-13.455c3.648,-3.497 8.057,-5.245 13.226,-5.245c2.433,-0 5.094,0.152 7.982,0.456c2.889,0.304 5.853,0.608 8.894,0.912l0.912,0c2.129,0 3.193,-1.216 3.193,-3.649l-0,-164.195c-0,-2.432 -1.064,-3.648 -3.193,-3.648c-5.473,-0 -10.794,0.456 -15.963,1.368c-6.081,0.304 -11.327,-1.52 -15.735,-5.473c-4.409,-3.953 -6.614,-8.97 -6.614,-15.051c0,-6.082 2.281,-11.099 6.842,-15.052c4.561,-3.952 9.73,-5.625 15.507,-5.017c6.081,0.608 10.87,1.065 14.367,1.369c3.497,0.304 6.993,0.456 10.49,0.456l14.367,-0c5.473,-0 10.11,1.976 13.911,5.929c3.801,3.953 5.701,8.514 5.701,13.683l0,18.7c0,1.824 0.532,2.888 1.597,3.193c1.064,0.304 2.204,-0.305 3.42,-1.825c20.069,-25.845 44.698,-40.592 73.888,-44.241c2.129,-0.304 4.181,-0.532 6.157,-0.684c1.977,-0.152 4.029,-0.228 6.158,-0.228c11.554,-0 21.132,2.736 28.734,8.209c7.601,5.473 11.402,13.531 11.402,24.173Z" style="fill:#ff6200;fill-rule:nonzero;stroke:#ff6200;stroke-width:18.99px;"/><path d="M3474.3,327.333c5.169,-0 9.578,1.748 13.227,5.245c3.649,3.497 5.473,7.982 5.473,13.455c0,5.473 -1.976,9.958 -5.929,13.455c-3.953,3.496 -8.818,5.093 -14.595,4.789c-9.426,-0.913 -16.8,-1.521 -22.121,-1.825c-5.321,-0.304 -10.414,-0.456 -15.279,-0.456c-5.473,0 -10.794,0.228 -15.963,0.684c-5.17,0.456 -12.163,0.988 -20.981,1.597c-5.777,0.304 -10.642,-1.293 -14.595,-4.789c-3.953,-3.497 -5.929,-7.982 -5.929,-13.455c-0,-5.778 1.976,-10.491 5.929,-14.139c3.953,-3.649 8.818,-5.169 14.595,-4.561c0.304,-0 0.456,-0.304 0.456,-0.912c0,-0.913 -0.456,-2.281 -1.368,-4.105l-51.083,-74.344c-1.52,-2.737 -3.345,-3.041 -5.473,-0.912l-23.261,19.612c-1.52,1.52 -2.281,3.193 -2.281,5.017l0,52.907c0,2.737 1.369,3.953 4.105,3.649l13.227,-0.912c5.777,-0.608 10.642,0.912 14.595,4.561c3.953,3.648 5.93,8.361 5.93,14.139c-0,5.473 -1.977,9.958 -5.93,13.455c-3.953,3.496 -8.818,5.093 -14.595,4.789c-9.426,-0.913 -16.799,-1.521 -22.121,-1.825c-5.321,-0.304 -10.262,-0.456 -14.823,-0.456c-3.344,0 -6.385,0.076 -9.122,0.228c-2.736,0.152 -6.157,0.38 -10.262,0.684c-4.105,0.304 -10.11,0.76 -18.016,1.369c-5.777,0.304 -10.642,-1.293 -14.595,-4.789c-3.953,-3.497 -5.929,-7.982 -5.929,-13.455c0,-5.778 1.976,-10.491 5.929,-14.139c3.953,-3.649 8.818,-5.169 14.595,-4.561l13.227,0.912l0.912,-0c2.129,-0 3.193,-1.216 3.193,-3.649l0,-270.009c0,-2.433 -1.064,-3.649 -3.193,-3.649c-2.736,0 -5.397,0.228 -7.981,0.684c-2.585,0.456 -5.397,0.684 -8.438,0.684c-4.865,0 -9.122,-1.748 -12.771,-5.245c-3.649,-3.496 -5.473,-7.829 -5.473,-12.998c0,-5.778 1.976,-10.491 5.929,-14.139c3.953,-3.649 8.818,-5.17 14.595,-4.561c4.561,0.304 9.198,0.684 13.911,1.14c4.713,0.456 9.046,0.836 12.999,1.14c8.21,0.304 15.279,3.345 21.209,9.122c5.929,5.777 8.893,12.771 8.893,20.98l0,167.844c0,1.52 0.533,2.585 1.597,3.193c1.064,0.608 2.204,0.304 3.421,-0.912l68.87,-58.381c1.52,-1.216 2.509,-2.356 2.965,-3.421c0.456,-1.064 0.228,-1.596 -0.684,-1.596c-1.217,0 -2.205,0.076 -2.965,0.228c-0.76,0.152 -1.9,0.228 -3.421,0.228c-5.169,0 -9.654,-1.824 -13.455,-5.473c-3.8,-3.649 -5.701,-8.058 -5.701,-13.227c0,-5.473 2.053,-10.11 6.158,-13.911c4.104,-3.801 8.893,-5.397 14.367,-4.789c9.73,0.912 17.179,1.597 22.348,2.053c5.169,0.456 10.034,0.684 14.595,0.684c5.778,-0 11.175,-0.228 16.192,-0.684c5.017,-0.456 12.086,-1.141 21.208,-2.053c5.474,-0.608 10.263,0.988 14.367,4.789c4.105,3.801 6.158,8.438 6.158,13.911c-0,5.473 -2.053,10.034 -6.158,13.683c-4.104,3.649 -8.893,5.321 -14.367,5.017c-1.824,0 -3.344,-0.152 -4.561,-0.456c-2.128,0 -3.8,0.608 -5.017,1.824l-73.887,62.03c-2.129,2.128 -2.433,4.104 -0.913,5.929l69.783,102.166c1.521,1.824 3.193,2.736 5.017,2.736c3.953,-0.608 7.906,-1.064 11.859,-1.368c3.953,-0.304 7.753,-0.456 11.402,-0.456Z" style="fill:#ff6200;fill-rule:nonzero;stroke:#ff6200;stroke-width:18.99px;"/><path d="M3581.03,189.135c-0,6.994 3.725,12.467 11.174,16.42c7.45,3.953 17.028,7.145 28.734,9.578c11.707,2.432 24.097,5.093 37.172,7.982c13.075,2.888 25.466,6.917 37.172,12.086c11.707,5.169 21.285,12.315 28.734,21.437c7.45,9.122 11.175,21.132 11.175,36.031c-0,14.291 -4.333,26.834 -12.999,37.628c-8.666,10.795 -20.829,19.156 -36.488,25.086c-15.659,5.929 -33.827,8.894 -54.503,8.894c-11.859,-0 -23.87,-1.445 -36.032,-4.333c-12.163,-2.889 -23.413,-6.918 -33.751,-12.087c-10.338,-5.169 -18.7,-11.402 -25.086,-18.7c-6.385,-7.297 -9.578,-15.355 -9.578,-24.173c0,-8.21 2.889,-15.127 8.666,-20.752c5.777,-5.626 12.467,-8.438 20.068,-8.438c8.514,-0 15.432,2.964 20.753,8.894c5.321,5.929 7.982,12.694 7.982,20.296l-0,2.737c-0,0.912 -0.152,1.824 -0.457,2.736l0,0.912c0,1.825 0.913,3.193 2.737,4.105c6.081,2.737 12.923,5.169 20.524,7.298c7.602,2.128 15.66,3.192 24.174,3.192c19.156,0 34.663,-3.192 46.521,-9.578c11.859,-6.385 17.788,-14.747 17.788,-25.085c0,-7.906 -3.725,-13.987 -11.174,-18.244c-7.45,-4.257 -17.028,-7.829 -28.734,-10.718c-11.707,-2.889 -24.097,-5.853 -37.172,-8.894c-13.075,-3.041 -25.466,-6.917 -37.172,-11.63c-11.707,-4.713 -21.285,-11.251 -28.734,-19.613c-7.45,-8.361 -11.175,-19.384 -11.175,-33.067c0,-21.892 8.742,-39.148 26.226,-51.767c17.484,-12.618 40.669,-18.928 69.555,-18.928c16.723,0 31.47,2.129 44.241,6.386c12.771,4.257 22.881,10.11 30.331,17.56c7.449,7.449 11.174,16.039 11.174,25.769l-0,2.965c-0,1.064 -0.152,2.052 -0.456,2.964c-0.912,6.69 -4.105,12.315 -9.578,16.876c-5.473,4.561 -11.707,6.841 -18.7,6.841c-8.818,0 -16.04,-3.42 -21.665,-10.262c-5.625,-6.841 -7.829,-14.519 -6.613,-23.033l-0,-0.912c-0,-1.824 -0.912,-3.193 -2.737,-4.105c-3.953,-1.216 -7.981,-2.128 -12.086,-2.736c-4.105,-0.609 -8.742,-0.913 -13.911,-0.913c-16.116,0 -29.494,3.041 -40.137,9.122c-10.642,6.082 -15.963,14.139 -15.963,24.173Z" style="fill:#ff6200;fill-rule:nonzero;stroke:#ff6200;stroke-width:18.99px;"/></svg>